<svg xmlns="http://www.w3.org/2000/svg" viewBox="0 0 124 102.3"><style>.st345{fill:#5552db}</style><g id="Layer_1"><path class="st345" d="M38.4 82.2c-.6 1.4-1.1 2.9-1.5 4.3-.3.9-.5 1.8-.7 2.7-.1.6-.2 1.3-.4 1.9-.2.6-.1 1.2-.3 1.7-.1.2-.1.5-.1.8 0 1.3.1 2.6.3 3.9.1.6.4.9.9 1.2.2.1.4.2.6.2 1.1 0 2.1-.4 3.1-1 1.5-.9 3-1.9 4.2-3.2.1-.2.3-.3.4-.4 1.3-1 2.3-2.3 3.3-3.6 1.3-1.7 2.7-4.1 3.4-6.1.3-.8.5-1.6.5-2.5 0-.1.1-.3.1-.4.1-.4.7-.6 1-.4.2.1.4.2.5.3.7.7 1.3 1.4 1.6 2.3.2.5.2 1 .3 1.5-.3.7-.1 1.6-.5 2.3l-.6 1.5c-.3.9-.8 1.8-1.5 2.6-.3.4-.7.8-.9 1.3-.2.3-.5.6-.8.9-.4.4-.8.7-1.1 1.2-.7.9-1.7 1.6-2.5 2.4-.3.3-.6.5-1 .7-.6.4-1.1.7-1.6 1.2-.6.5-1.4.8-2.1 1.2-.3.2-.7.5-1.1.6-.5.1-1 .4-1.5.6-.4.1-.8.1-1.2.2H39c-1.3.5-3.5-.1-4.5-.6-.7-.3-1.2-.8-1.6-1.3-.7-.9-1.3-1.9-1.7-3-.1-.2-.2-.5-.2-.7-.1-1-.3-2.1-.4-3-.1-1-.1-2-.2-2.9 0-.4 0-.8.1-1.2.1-.2.1-.4.1-.6-.1-1 .2-2.1.4-3.1.2-.8.3-1.7.5-2.5.4-1.7 1.1-3.3 1.7-4.9.9-2.4 2.1-4.6 3.4-6.8.6-1.1 1.4-2.1 2.2-3.2.5-.7 1.1-1.4 1.5-2.2.1-.2.3-.4.5-.7 1.2-1.5 2.5-3.1 3.7-4.6.6-.7 1.2-1.5 2-2.1.4-.3.8-.8 1.1-1.2.6-.7 1.3-1.4 2-2 1.7-1.5 3.6-2.9 5.6-4.1.3-.2.6-.4.9-.5.9-.4 1.7-.8 2.7-.9.5 0 1.1-.1 1.6-.2.8-.1 1.6.1 2.3.6.6.4 1.1.9 1.7 1.3.3.2.4.2.7-.1.6-.5 1.1-1 1.7-1.5 1.1-.9 2.4-1 3.6-.4 1 .5 1.8 1.2 2.3 2.3.1.3.1.6-.1.9-.2.2-.3.4-.6.6-.6.5-1.2.9-1.8 1.3-1.3.9-2.6 1.9-3.7 3.1-.8.8-1.7 1.6-2.5 2.4-.4.4-.8.8-1 1.2-.5.9-1.2 1.6-1.6 2.6-.2.5-.4 1-.4 1.5 0 .3-.1.6-.2 1-.1.3-.5.6-1 .4-.2-.1-.4-.2-.5-.3-.4-.7-.8-1.4-.8-2.3 0-.5.1-1.6.4-2.3.4-1.3.9-2.5 1.5-3.7.5-.9 1-1.7 1.5-2.6.1-.2.1-.3-.1-.3h-.2c-1.1.5-2.2 1.1-3.2 1.8-1.9 1.4-3.8 2.8-5.5 4.5-.7.5-1.3 1.2-1.9 1.9-.2.2-.3.4-.6.6-1.1.9-1.9 2-2.8 3-.4.5-.8.9-1.2 1.4L43.7 72c-.8 1.1-1.5 2.3-2.1 3.4m-9.3 11.5c.1.1.1.2.2.3l.1-.1c-.1-.1-.2-.2-.3-.2-.1-.2-.2-.3-.3-.2v.1c.1.1.2.1.3.1zm29.3-32.3c-.4.2-.4.2-.3.5 0 .1.1.1.1.1l.1-.1c.1-.1.1-.3.1-.5.1 0 .2-.1.3-.2v-.1c-.2-.1-.2 0-.3.3zm-2.7-1.9c0-.3-.3-.4-.5-.6-.1-.1-.3-.1-.3.1v.2c.1.1.1.2.2.3.3-.1.5-.1.6 0 0 .1-.1.3-.1.5v.1c.1.1.2.1.4 0s.3-.3.4-.4c0 0 .1-.1.1-.2-.1-.1-.2-.2-.3-.1-.2 0-.3 0-.5.1zm4.1 4.1c.1.1.1.2.2.3l.1-.1c-.1-.2-.2-.2-.3-.2 0-.2-.1-.3-.3-.3-.2 0-.4.2-.4.3v.4c0 .1.1.2.2.3.1-.1.1-.2.2-.3 0-.2.1-.4.3-.4zm-7.8-1.3c.1.1 0 .3.3.3v-.1c-.1-.2-.2-.2-.3-.2-.1-.2-.1-.5-.1-.7 0-.2-.3-.3-.4-.1l-.6.6c-.1.2-.2.3-.2.5 0 .3.1.5.1.8 0 .1.1.2.1.1.1 0 .3-.1.3-.1.1-.1.2-.3.1-.5-.1-.3-.1-.3.2-.4.2-.2.3-.2.5-.2zM35.9 81l-1.8.3c-.1 0-.1.1-.1.1-.1.3-.1.5.1.7.2.2.3-.1.5-.1.4-.2.7 0 .6.4 0 .2-.1.4-.2.6-.1.3-.1.4.2.6h.3s.1-.1.1-.2c0-.5-.1-1 .2-1.5.2-.3.1-.6.1-.9.1-.1.2-.1.2-.2l-.1-.1c-.1 0-.2.1-.1.3zm3.5-6.7c.1.1.3.1.3-.1.1-.2.1-.4.2-.6.1-.2-.1-.3-.3-.3-.5.1-1 .4-1.3.8 0 0 0 .1-.1.2-.1.4 0 .7.5.9.2.1.3 0 .3-.1v-.6c0-.1.1-.2.4-.2zm1.7-5.3c-.1 0-.1 0-.2.1-.3.3-.3.5 0 .6.2.1.5.1.8.2.1 0 .3 0 .4-.1v-.1c-.2-.2-.5-.4-.8-.6-.1-.1-.2-.1-.2-.1zm7.4-6c-.1 0 0 0 0 0 .1 0 .1 0 .2-.1v-.1c-.3-.3-.7-.6-1.2-.4-.1 0-.2.2-.3.2.1 0 .1.1.2.1.4.2.7.2 1.1.3zM37.1 78.8c-.2.1-.5.1-.7.2-.1 0-.1.1-.1.1 0 .1-.1.3 0 .4.1.2.2.2.3 0 .2-.2.4-.3.7-.4.3-.1.5-.3.3-.3h-.5zm-3 14.1c0-.2-.2-.3-.4-.2-.3.1-.3.2-.3.4.1.2.2.3.4.2.2 0 .3-.2.3-.4zm4.7-16.6c-.1 0-.3 0-.4.1-.1 0-.2.1-.3.2.1 0 .3.1.4.1.2 0 .4 0 .6-.1.1 0 .2-.1.3-.2-.1 0-.1-.1-.2-.1h-.4zm7.6-9.9c.1 0 .1-.1.2-.1 0-.1-.2-.3-.4-.4-.1 0-.2.1-.2.2 0 .3.2.4.4.3zm2.8-4.8c-.1-.1-.1-.2-.2-.3h-.1l-.1.1v.2c0 .2.1.3.2.4.1-.1.1-.2.2-.4zM33.3 89.1v-.2c-.1-.1-.2-.1-.3 0-.1.1-.1.2-.2.3-.1.1-.1.2.1.3h.2c.1 0 .2-.2.2-.4zm12.1-24.8c0 .2.1.4.1.5 0 .1.1.1.1.1.1-.1.2-.2.2-.3 0-.2-.1-.4-.1-.5l-.1-.1c-.2.1-.2.2-.2.3zM32.5 91.1c0-.1.1-.1.1-.2v-.5l-.1-.1c-.1 0-.2.1-.2.2 0 .3.1.6.2.6zM35 79.5c-.1 0-.2.1-.3.1-.2.1-.2.2-.1.5.1.2.2.2.3 0 .2-.1.3-.2.3-.4 0-.1 0-.2-.2-.2zm.5 6.6c0-.1 0-.1-.1-.1-.1-.1-.2-.1-.3.1-.1.1-.3.2-.2.4h.2c.1 0 .2-.1.3-.2.1-.1 0-.1.1-.2zM43 68.9c.1 0 .1 0 .2-.1s.2-.2.1-.3c0-.1 0-.1-.1-.1-.1-.1-.2 0-.3.1-.1.1-.1.2-.2.3.1 0 .2.1.3.1zm-7.4 15.3l-.1.1c.1.1.1.2.2.3.2.2.5.1.4 0 0-.1-.1-.2-.1-.3-.1-.1-.2-.1-.4-.1zm-1.6.3c-.1 0-.1-.1-.2-.1-.3.1-.4.2-.4.5l.1.1c.1-.1.2-.1.3-.2.1-.1.1-.2.2-.3zm29.7-29c-.1 0-.1 0-.2.1-.1 0-.1.1-.1.1 0 .1.4.4.6.4.1 0 .1-.2.1-.3 0-.2-.1-.3-.4-.3zm2.5-1.3h.1c.1-.1.2-.2.2-.3 0 0 .1-.1.1-.2-.1-.1-.2-.1-.3-.1-.2.1-.3.2-.2.4 0 .1.1.2.1.2zm-.6.7v-.2c-.1-.2-.2-.1-.4.2-.1.1-.1.2.1.3h.2c0-.1.1-.2.1-.3zm-.2-2.1l-.1-.1c-.1 0-.2.1-.3.2-.1.1-.1.2-.2.3l.1.1c.2 0 .3-.1.4-.3.1-.1.1-.1.1-.2zM52.2 56H52c-.3 0-.5.1-.7.3l.1.1h.6c.1 0 .1-.1.1-.1.1-.2.1-.2.1-.3zm9.5-3.3c0-.2-.1-.3-.4-.3-.1 0-.2.1-.3.2 0 .1 0 .1.1.2s.3.2.5.1c.1-.1.1-.2.1-.2zM38.1 80.5c-.1-.1-.2-.1-.4-.1-.1 0-.1.1-.1.1.1.1.2.1.3.1.1 0 .1-.1.2-.1zM47 61.3c.1 0 .2-.1.3-.2 0-.1-.1-.1-.3-.1-.1 0-.2.1-.1.2 0 .1.1.1.1.1zm11.2-5.2c.1.1.2.1.3.1.1 0 .1-.1.1-.1l-.1-.1h-.3c.1 0 0 .1 0 .1zm-7 1.9v-.2c0-.1-.1-.1-.1-.1-.1.1-.2.2-.2.3 0 .1.1.2.2.1.1.1.1 0 .1-.1zm5.1-1.3c-.1-.1-.2-.1-.3-.1-.1 0-.2.2-.2.2.1.1.2.1.3.1l.2-.2zm-10 6.2v-.1l-.1-.1c-.1 0-.3 0-.3.1s0 .2.2.2c0 .1.1 0 .2-.1zm13.6-11.4c.1 0 .1.1.2.1h.2c.1 0 .1-.1.1-.1 0-.1-.1-.2-.2-.1-.2 0-.3 0-.3.1zm10.7 1.6s-.1.1-.1.2 0 .3.1.3l.1-.1c.1-.2.1-.3-.1-.4zm-12.7.8c.1 0 .2-.1.3-.2-.1 0-.2-.1-.3-.1-.1 0-.2.1-.3.2.1 0 .2.1.3.1zm-1.4.1l-.2-.2c-.1 0-.2 0-.3.1 0 0 .1.1.2.1.1.2.2.1.3 0zM41.8 71.2c0-.1-.1-.2-.1-.3 0 .1-.1.1-.1.2v.2c0 .1.1.1.1.1 0-.1.1-.1.1-.2zm-1.9-1.6c-.1 0-.1-.1-.2-.1h-.2c-.1 0-.1.1-.1.1 0 .1 0 .1.2.1.2.1.3 0 .3-.1zm1 1.9l.1-.1h-.1v.1zm3.1-5.7s-.1.1 0 .1l.1.1.1-.1c0-.1-.1-.2-.2-.1zm4.1-1.2c0-.1 0-.2-.2-.2l-.1.1c.1 0 .1.1.2.1 0 .1.1 0 .1 0zm-4.3 3.2l-.1.1h.1v-.1zm1.6-1.3l-.1-.1-.1.1c0 .1.1.1.2.1v-.1zM34.9 77.7l.1-.1-.1.1zm2.1.2zm-1.3.5l.1.1v-.1h-.1zm2.2-5.1c-.1 0-.1.1-.1.1.1.1.2.1.3 0-.1 0-.2-.1-.2-.1zm3.2-.4zm9.7-12.3l.1.1v-.1h-.1zm-1.6-1.3l.1-.1h-.1v.1zm4.3-.6l.1.1v-.1h-.1zm-2.6.7h-.1l-.1.1c.1.1.2.1.3 0-.1 0-.1-.1-.1-.1zm-4.1 4.5l-.1-.1v.1h.1zm14.1-2.7c-.1-.2-.2-.2-.2 0l.1.1.1-.1zm7.3-7.8l-.1.1h.1v-.1zm-11.1 2l-.1-.1v.1h.1zm3.3.4c-.1 0-.1-.1-.1-.1l-.1.1.1.1s0-.1.1-.1zm-6.7-1.5l-.1-.1-.1.1c0 .1.1.1.2.1v-.1zm6.5-.9l-.1-.1-.1.1s0 .1.1.1c0 .1.1 0 .1-.1zm7.6-1l-.1-.1v.1h.1zm-19 6.1l-.1-.1c-.2.1-.2.2 0 .2 0 .1.1 0 .1-.1zm3.5-.1s-.1.1 0 .1l.1.1.1-.1c0-.2-.1-.2-.2-.1zm15.1-3.6l.1.1v-.1h-.1zm-9.7 2.1c-.1 0-.1-.1-.2-.1s-.1.1-.1.1c.1 0 .1.1.2.1l.1-.1zM34.1 90.8zm18.2-2zM33 91.7l-.1.1h.1v-.1zm-.4-8.8l.1-.1h-.1v.1zm.2 2.7l.1-.1h-.1v.1zm2.5-.4h-.1v.1l.1-.1zm14.8 7l.1-.1h-.1v.1zm-5.3 5l.1.1v-.1h-.1zm-12.5-.6l-.1-.1c-.2.1-.2.2 0 .3 0-.1.1-.2.1-.2zm1.3 1l-.1-.1v.1h.1zM11 23.5c0 .4-.1.7-.1 1.1-.1.7-1.1 1.2-1.8.8-.5-.3-1-.7-1.4-1.1-.3-.3-.6-.7-.8-1.1-.2-.3-.3-.7-.5-1-.3-.6-.4-1.1-.4-1.7.1-.6.1-1.2-.1-1.8-.1-.3-.1-.6 0-.9.4-1 .5-2 1.1-2.9 1.3-2.2 2.3-3.5 4.6-5.5.2-.2.5-.4.7-.6 1.9-1.8 4.1-3.1 6.4-4.3 1-.5 6.1-2.4 7.3-2.8 1.5-.4 3.1-.8 4.7-1.1.5-.1 1-.2 1.6-.2.3 0 .6 0 .9-.1.5-.2 1.1-.1 1.6-.1 1 0 2 .2 3-.1.3.2.5.2.9.1.2-.1.5-.1.7 0 1 .4 2.1.5 3.1.6.6.1 1.2.4 1.7.6 1.5.5 1.9.8 3 1.6.3.2.6.6.8 1 .2.4.3.8.3 1.3 0 .3-.1.6-.1.9 0 .3-.2.6-.3.8-.6.9-1.2 1.7-2 2.4-.4.4-.9.8-1.4 1.2-.4.3-.6.9-1.2 1-1.8 2-3.8 3.7-5.4 5.8-.2.2-.4.5-.6.7-1.5 1.3-2.6 2.9-3.8 4.5-.5.7-1.1 1.4-1.7 2.1-.7.9-1.4 1.8-2 2.7-.7 1-1.4 1.9-2.1 2.9-.6 1-1.3 2-2 3-.7.9-1.2 1.9-1.8 2.9-.8 1.3-1.7 2.6-2.5 4-1.1 1.8-2.1 3.6-3 5.5-.4.5-.2 1.1-.6 1.6-.3.5-.2.8-.3 1.3-.1.3 0 .6-.1.9-.1.4-.3.9-.3 1.3 0 .2.2.5.4.4.6-.1.9-.3 1.5-.3 1-.1 2-.3 3-.3.7-.3 1.4-.2 2.1-.2.6 0 1.2 0 1.8-.2.4-.1.9 0 1.4 0 .8 0 1.5.1 2.3-.1.3-.1.6 0 .9 0 2.2.1 4.3.2 6.5.5.5.1.9.1 1.3.3.2.1.4.1.7.2 1.5.3 3.1.9 4.2 1.8 1.3.9 2.3 2 2.7 3.5.1.2 0 .4-.2.6-.5.5-.9.6-1.4.3-.3-.1-.6-.3-.8-.4-.5-.3-.9-.5-1.5-.5-.4 0-.7-.2-1.1-.3-.4-.1-.9-.2-1.3-.3-.9-.1-1.8-.2-2.8-.2-.7 0-1.4-.1-2.1.1-.4.1-.9 0-1.4 0-1.1 0-2.3-.2-3.4.1-.4.1-.9 0-1.4 0-.5 0-1.1-.1-1.6.2-.1.1-.3.1-.5.1-.8.1-1.5-.1-2.3.2-.6.2-1.4 0-2 .3-.2.1-.5.1-.7.1-1.1 0-2.1.3-3.2.4-.6.4-1.4.1-2 .4-.5.2-1.2.4-1.8.5-4.2.8-6.8 1.9-9.1 3-1 .5-2 1.1-2.9 1.8-.4 0-.6.2-.9.3-.4.2-1.1 0-1.2-.3-.2-.5-.4-1-.3-1.5 0-.3.1-.6 0-.9 0-1 .4-1.9.8-2.8.3-.6.8-1.1 1.3-1.6.8-.6 1.6-1.2 2.5-1.6.6-.3 1.2-.6 1.9-.9.7-.3 1.5-.5 2.4-.7.7-.2.6-.4 1.4-.4.1 0 .3-.1.4-.2.1-.1.2-.3.2-.4.1-.3.1-.6.2-.9.2-.6.2-1.2.4-1.7s.2-.7.3-1.2c.1-.6.6-1.6.7-2.2 0-.7.5-1.2.6-1.9.2-.7.4-1.4.8-2.1.8-1.3 1.2-2.7 1.9-4 .1-.2.1-.4.2-.6.8-1.3 1.4-2.7 2.1-3.9.8-1.3 1.6-2.6 2.4-3.8 1.8-2.7 3.6-5.4 5.6-7.9 1-1.7 2.4-3.1 3.7-4.6 1.9-2.3 3.9-4.6 6-6.8 1.2-1.3 2.4-2.5 3.6-3.8.3-.4.4-.8.4-1.2 0-.2-.1-.4-.3-.5-1.5-.7-3.1-.9-4.7-.6-.3-.1-.6-.1-.9-.1-1 0-2 .3-2.9.6-1.3.4-2.6.9-3.9 1.5-1.2.5-2.3 1.3-3.3 2-.6.4-1.1.8-1.7 1.1-.4.2-.8.5-1.1.8-.8.6-1.5 1.3-2.3 1.9-.6.5-1.1 1-1.6 1.6L15 15.9c-1.2 1.4-2.2 2.9-3 4.5-.3.5-.6 1.1-.7 1.6-.2.4-.3 1-.3 1.5zm2.4 27.1c.1 0 .3-.1.4-.1l-.1-.1c-.1 0-.2.2-.3.2-.1.1-.3 0-.3.3h.2c.1 0 .1-.2.1-.3zm-1.3 5.3c0 .1.1.2.1.3h.1c.1-.2-.2-.2-.2-.3-.1 0-.2-.2-.2-.3l-.1.1c.1.1.2.1.3.2zm-2.3-.2c-.1.2 0 .3.2.4l.1-.1c-.1-.2-.2-.2-.3-.3 0-.1 0-.2-.2-.3l-.1.1c0 .2.1.2.3.2zm25.2-2c0-.1-.1-.2-.1-.3h-.1c-.2.1-.1.1.2.3 0 .1.1.2.2.3 0 0 .1-.1.2-.1-.2 0-.3-.1-.4-.2zm-10.7-.4c.2 0 .3 0 .4-.1.1-.1 0-.2-.2-.2-.1 0-.2.1-.2.3-.4 0-.4 0-.5.4h-.6c-.1 0-.2.1-.1.1.1.2.2.2.3.2.2 0 .4-.2.4-.4.4.1.4.1.5-.3zm-1-20.8c-.1.2 0 .3.1.4 0 0 .2-.1.1-.1 0-.3-.1-.3-.2-.3-.1-.1-.2-.2-.2-.3l-.1.1c0 .1.1.2.3.2zm-14-17.3c.1-.1 0-.3-.1-.3-.1-.1-.2 0-.2.1.1.2.2.2.3.2.1.1.1.2.2.3l.1-.1c0-.1-.1-.2-.3-.2zm3.9-1.1c0 .2-.1.4.3.3-.2-.1-.3-.2-.3-.3 0-.1-.1-.2-.2-.3l-.1.1c0 .2.1.2.3.2zm29-9h.4c.2 0 .3-.1.4-.1-.1 0-.1-.1-.2-.1h-.4c-.1 0-.2.1-.2.2-.1 0-.2 0-.3.2l.1.1c.1 0 .2-.1.2-.3zM15 53.9c.3 0 .4-.1.5-.3 0-.1 0-.3-.1-.4l-.1.1c-.2.2-.2.4-.3.6-.1 0-.3 0-.3.2l.1.1c.1 0 .2-.2.2-.3zm6.5-.4c0 .2 0 .3.1.3s.2 0 .2-.2c0-.1-.1-.1-.3-.1v-1c0-.1-.2-.2-.3-.2-.2-.1-.3 0-.4.2-.1.2-.1.4-.1.6 0 .2.1.4.4.4h.4zM8.2 57.8h.2c.2-.2.5-.4.6-.6.1-.1 0-.3-.1-.4-.1-.1-.3-.2-.4-.1-.3.1-.5.2-.7.5-.1.1-.1.3 0 .4.1.1.2.2.4.2zM44.1 7.3c-.1 0-.1-.1-.2-.1-.6.1-1.2.3-1.4.5 0 0 .1.1.2.1.5.2 1 .1 1.4-.4v-.1zM32.8 18.7s-.1-.2-.3-.3c-.2 0-.4.1-.5.3-.1.3.1.4.2.6.1.1.3.2.3.2.1-.1.2-.2.2-.4 0-.1 0-.1.1-.4zm1.9-2.1c0-.1 0-.2-.1-.2-.5 0-.8.2-1.2.4v.2c0 .2.1.3.2.2.3-.1.6-.2.8-.3.2 0 .2-.1.3-.3zm-3 36c-.3 0-.7.1-.6.1l.3.3c.1.1.3.2.4.3.2.1.3.1.3-.1 0-.1 0-.3-.1-.4 0-.1-.2-.2-.3-.2zm-10.3-18c-.1-.2-.1-.4-.2-.6 0-.1-.1-.1-.1-.2l-.3.3c0 .1-.1.1 0 .2 0 .1 0 .3.1.4.1.2.2.2.3.2.2 0 .3-.1.2-.3zm-9.7-21.7s-.1-.2-.2-.2c-.3-.1-.4 0-.5.2-.1.1-.1.3.1.4h.2c.1-.1.3-.2.4-.4zm1.1-1.4c-.1-.1-.1-.3-.2-.4 0-.1-.2-.1-.3-.1-.2 0-.2.2 0 .3.1.1.2.4.5.3v-.1zm-2.4 5.6l-.4-.4h-.2c-.2.1-.2.2-.2.4.1.3.2.3.5.4.2 0 .3-.1.3-.4zm4-6.4c0 .1.1.2.1.2.1-.1.3-.1.4-.2.3-.2.3-.5 0-.5-.1 0-.3 0-.4.1-.1.1-.1.3-.1.4zm4.1 44.7c0-.1-.1-.2-.1-.2-.1 0-.3.1-.4.2-.1.1-.2.2-.2.4 0 0 .1.1.2.1.3 0 .4 0 .5-.3v-.2zm19.7-1.8H38l-.1.1c.1.1.2.2.4.2.1 0 .2-.1.2-.1 0-.1-.1-.2-.3-.2zm-23.4 2.9c.1 0 .3-.1.4-.1-.1-.2-.2-.3-.3-.2-.1 0-.3.1-.4.2 0 0 .2.1.3.1zm6.8-24.9h-.2c-.1 0-.2.1-.2.1.1.1.2.2.4.2.1 0 .1-.1.2-.1-.1-.1-.1-.2-.2-.2zm-1.7 4.2c.1 0 .1-.1.2-.1l-.2-.2h-.4v.1c.1.1.2.1.4.2zm7.1-8.5c.1 0 .1-.1.2-.1L27 27h-.2c-.1 0-.2.1-.2.1.1.2.3.2.4.2zM15 43.1c0-.1-.1-.2-.2-.4-.1.1-.2.2-.2.3 0 .1.1.3.2.3.1.1.2 0 .2-.2zm13-17.9c.1-.1.3-.1.4-.2-.1-.1-.2-.2-.4-.2-.1 0-.3.1-.4.1.2.1.3.2.4.3zm-1.6.1h-.2c-.1.1-.2.2-.2.3 0 .2.2.2.3.2.1-.1.2-.2.1-.4.1 0 .1 0 0-.1zM22 5.1l-.1-.1c-.1-.1-.3 0-.4.1 0 0 0 .1.1.1h.4v-.1zm3.4-1.5l-.1-.1h-.2c-.1 0-.2 0-.2.1s.1.2.2.2c.2 0 .3-.1.3-.2zm10.9 8.1c.1.1.1.1.2.1.1.1.3 0 .4-.1-.1-.1-.2-.2-.3-.2-.1.1-.2.1-.3.2zm1.2 3.8h.2c.1 0 .2-.1.2-.1 0-.1-.1-.2-.3-.2-.2 0-.3.1-.2.2 0 0 0 .1.1.1zm5.2-5.9c.1 0 .2-.1.4-.1-.1-.1-.1-.1-.1-.2h-.4s-.1.1 0 .1c0 .1.1.2.1.2zm-2 1.5c0-.1-.1-.2-.1-.2-.2.1-.2.2 0 .3l.1-.1zm-1.8 2.1l.1.1v-.1h-.1zM15 11.7c-.1 0-.2.1-.2.1 0 .2.2.2.3 0l-.1-.1zm-1 .4l-.1.1h.1v-.1zm24.2-.4c-.2.1-.2.2 0 .3 0 0 .1-.1.2-.1-.1-.1-.1-.2-.2-.2zm1.5.3l-.1-.1v.1h.1zM24.5 4.9c0-.1-.1-.1-.1-.2-.1 0-.1.1-.2.1 0 .1.1.1.1.2 0 0 .1 0 .2-.1zM42 6.3c-.1-.2-.2-.2-.3 0l.1.1c.1 0 .1-.1.2-.1zm1.9.1l-.1-.1c-.2 0-.2.1 0 .2 0 0 .1 0 .1-.1zM18.2 7.6l-.1-.1v.1h.1zm12.5 12.6l-.1-.1s-.1.1-.2.1c0 0 0 .1.1.1.1.1.1 0 .2-.1zm0-1.6l.1-.1s-.1-.1-.1-.2c0 0-.1 0-.1.1-.1.1 0 .2.1.2zm-20.6 2.3l-.1-.1c-.2 0-.2.1 0 .2l.1-.1zm20.3.1l-.1.1h.1V21zm5.2-5.9c-.1 0-.2.1-.2.1.1.2.2.2.3 0 0 0-.1 0-.1-.1zm3.2-1h.1-.1zm-27.9 1.5v-.1.1zm2 .1c0-.1-.1-.1-.1-.2-.1 0-.1.1-.1.1l.1.1c0 .1 0 0 .1 0zm28-13.2l-.1-.1s-.1.1-.2.1c0 .1.1.2.2.2.1-.1.1-.1.1-.2zm2.9 2.1l.1.1v-.1h-.1zM25.9 31.5l-.1.1h.1v-.1zm-2.2-.1l-.1-.1-.1.1.1.1.1-.1zm2.5-7.5l-.1-.1c-.2 0-.2.1 0 .2l.1-.1zm.7.2l.1-.1h-.1v.1zm-.8 4.4l.1-.1H26l.1.1zm-1.4.6l-.1.1h.1v-.1zm-1.3.5c0-.1-.1-.1-.1-.2-.1 0-.1.1-.1.1l.1.1c0 .1 0 0 .1 0zm-9 16.9l.1-.1h-.1v.1zm1.3 0h.1-.1zm.5-4.2c-.1 0-.2.1-.2.1.1.2.2.3.3 0 0 .1-.1 0-.1-.1zm-2.7 9.8l-.1.1h.1v-.1zm15.9 1.3c0-.1-.1-.2-.1-.1-.2 0-.2.1 0 .3-.1 0 0-.1.1-.2zm-11.5.5l.1.1v-.2l-.1.1zM11 55l-.1.1c0 .2.1.2.2 0 0 .1-.1 0-.1-.1zm3.3.4l-.1-.1v.1h.1zm1.5-5.1l.1-.1h-.1v.1zm10.8 1.5l-.1.1h.1v-.1zm3.2.4l.1-.1h-.1v.1zM15.2 52v-.1.1zM18 37.8v-.1.1zm1.7.1l.1.1v-.1h-.1z"/><path class="st345" d="M37.4 47.4c-2.6-.1-2.6-.1-4.5-1.1-.8-.5-1.5-1.1-2-2-.3-.5-.6-1.1-.7-1.6-.1-.8-.5-1.5-.3-2.3.1-.4 0-.8.2-1.2.1-.1.1-.2.1-.4 0-1.2.6-2.3 1-3.4.5-1.2 1.1-2.3 1.8-3.3.4-.7 1-1.3 1.5-1.9 1.1-1.2 2.3-2.3 3.6-3.2.5-.3.9-.7 1.3-1 1.1-.7 2.3-1.3 3.6-1.8.9-.3 1.8-.6 2.8-.5.8 0 1.5 0 2.2.1 1.1.2 2 .9 2.5 1.9.2.4.4.9.4 1.3.1.6 0 1.2 0 1.8-.4.5-.2 1.2-.5 1.7-.2.5-.5 1-.6 1.4-.2.6-.8 1.1-1.1 1.7-.2.4-.6.7-.9 1-1.2 1.3-2.7 2.2-4.4 2.8-.3.1-.5.1-.8.2h-1.2c-1.2.1-2.2-.2-2.9-1.1-.1-.1-.4 0-.5.1-.1.1-.2.2-.2.3-.2.7-.4 1.4-.7 2.1-.3.8-.3 1.6-.2 2.3.1.8.9 1.6 1.8 1.6h1.8c.6-.3 1.2-.2 1.8-.4l1.2-.3c1.7-.7 3.3-1.5 5-2.2.9-.6 1.8-1.2 2.6-1.9.8-.6 1.5-1.3 2.3-2 .5-.4.9-.8 1.4-1.2.3-.2.6-.3 1-.1.2.1.5.2.7.4.1.1.2.3.3.5v.6c0 .3-.1.6-.4.9l-.3.3c-1.2.8-2.2 1.8-3.3 2.6-.5.1-.8.5-1.2.8-.6.5-1.3 1-2 1.4-1.9 1.3-3.9 2.5-5.9 3.5-1.4.6-2.8 1-4.2 1.5-.3.1-.5.1-.8.1h-1.3zm-.2-15.6c-.1.2 0 .3.1.3l.1-.1c0-.1-.1-.2-.2-.2 0-.1-.1-.2-.2-.3l-.1.1c0 .2.1.3.3.2zm-5.1 7c.1.1.1.2.2.3l.1-.1c-.2 0-.3-.1-.3-.2-.1-.1-.1-.3-.1-.5 0-.1-.1-.2-.1-.1-.1 0-.2.1-.2.3 0 .2.2.3.4.3zm7.8-3.7c.4 0 .7 0 1-.1 1.6-.3 3.3-1.1 4.5-2.1 1-.8 1.8-1.8 2.3-3 .1-.1.1-.3.1-.4.1-.7-.1-1.1-.8-1.1-.5 0-1 0-1.4.1-.7.2-1.4.5-2 1-1 .8-2 1.6-2.8 2.6-.4.5-.7.9-1.2 1.3-.3.2-.5 1-.5 1.2 0 .1.1.1.1.1.4.3.6.3.7.4zm-3 .2c-.1-.4-.2-.7-.3-1.1 0-.1-.1-.1-.1-.2-.1.1-.3.1-.3.2-.3.3-.3.6-.1.9l.4.4h.2c.1-.1.1-.2.2-.2zm-.7.9c.1-.3-.2-.4-.4-.6-.1-.1-.2-.1-.3 0v.2c.1.3.2.4.5.6 0 0 .1 0 .2-.2zm7.9-10.4c-.2 0-.4-.1-.5-.1-.1 0-.2.1-.3.1.1.1.2.2.3.2.2.1.4 0 .5-.1v-.1zm-8.4 11.7c0-.2-.1-.4-.3-.4-.1-.1-.3 0-.3.1v.2c.1.2.2.3.4.4.1-.1.2-.2.2-.3zm-2.6 4.3c0-.2 0-.4-.2-.5h-.4l-.1.1c0 .2.3.5.5.5.2.1.2 0 .2-.1zm-.5-3.6c0 .1.1.2.1.2.2 0 .4-.2.4-.3 0-.1-.1-.2-.2-.2-.3-.1-.3 0-.3.3zm5.8-5.1v-.2c0-.1-.1-.1-.1-.1-.2-.1-.5 0-.5.1s.1.2.2.3c.1.2.3.1.4-.1zm-4.4 4l-.1-.1c-.1 0-.2.1-.3.1l.1.1h.3v-.1zm3.5 6.5l-.1-.1c-.1 0-.2 0-.4.1l.1.1c.2.1.3 0 .4-.1zm-4.9-.2l-.1-.1c-.1 0-.2.1-.3.1l.1.1c.1.1.2.1.3 0v-.1zm3.3-1.1c-.1-.2-.2-.2-.3-.1-.1 0-.2.2-.2.2 0 .1.2.2.3.1.1 0 .1-.1.2-.2zm-.9-9.1l-.1-.1-.1.1.1.1.1-.1zm2.2 3.7l.1-.1h-.1v.1zm-2.5 2.7l.1-.1h-.1v.1zM31.2 41l.1.1V41h-.1zm1.4-.4l-.1.1.1.1.1-.1c.1-.1 0-.2-.1-.1zm2.6.1l-.1-.1c-.1 0-.1.1-.1.1l.1.1c.1.1.1 0 .1-.1zm-.9-2.9l-.1.1c.1.2.1.2.2 0 .1 0 0 0-.1-.1zm9.5-10.7l-.1-.1-.1.1.1.1.1-.1zm5.1.1l.1.1v-.1h-.1zm-6.7-.6l-.1-.1-.1.1.1.1.1-.1zm.2 1.1c-.1 0-.2.1-.2.1.1.2.2.2.3 0 .1 0 0-.1-.1-.1zm3.5-2.9l-.1-.1v.1h.1zm24.6 68.1c0-.5.1-1.1.1-1.6 0-.1 0-.2.1-.4.4-.8.4-1.7.8-2.4.4-1 .8-1.9 1.1-2.9.4-1 .8-1.9 1.2-2.8.1-.3.3-.5.3-.8 0-.3.2-.6.3-.8.3-.6.5-1.3.8-2 .1-.2-.1-.3-.3-.3-.2 0-.4 0-.5.1-1 .5-2.1 1-3 1.8-.7.6-1.5 1.1-2.2 1.7-.8.7-1.6 1.5-2.4 2.2-1.9 1.8-3.5 4-5 6.2l-.9 1.5c-.4.6-.6 1.3-.6 2 0 .2 0 .4-.1.6 0 .2-.3.5-.5.5-.8.2-1.5.1-2-.4-.7-.7-1.3-1.5-1.3-2.5-.4-.9-.3-1.9-.3-2.9 0-.4 0-.8.2-1.1.2-1.2.6-2.4 1-3.5 0-.6.4-1.1.5-1.7.1-.7.4-1.3.7-2 .4-.9.9-1.9 1.3-2.8.4-.9.8-1.7 1.2-2.6.6-1.5 1.4-2.8 2.1-4.2.7-1.5 1.5-2.9 2.2-4.3.4-.7.8-1.4 1.2-2 .4-.7.8-1.3 1.3-2 .6-.9 1.1-1.9 1.8-2.7.9-1.3 1.8-2.5 2.9-3.6.2-.2.5-.4.7-.5.3-.1.6-.3 1-.1.8.1 1.4.4 2.1.8.6.4 1.1.9 1.3 1.6.1.2.1.4 0 .5-.4.7-.7 1.4-1.2 2.1-.6 1-1.4 2-2 3.1-1 1.6-2.2 3.1-3.1 4.8-1.1 1.6-2.1 3.3-3.1 4.9-.5.8-1 1.7-1.5 2.6l-1.2 2.1c-.3.7-.7 1.3-.9 2-.3.8-.8 1.4-1 2.2l.1.1c.7-.5 1.2-1.1 1.8-1.8.2-.2.3-.4.5-.6.8-.5 1.4-1.2 2.1-1.9 1.1-1 2.3-1.9 3.5-2.8.5-.4 1-.7 1.5-1.1 1.4-1 2.9-1.7 4.4-2.4 1.2-.5 2.3-.7 3.5-.5.2 0 .3.1.5.2.3.1.6.3.9.4.6.3.9.7 1.2 1.3.1.3.1.5 0 .8-.3.8-.6 1.6-1.1 2.3l-.9 1.5c-.7 1.1-1.4 2.3-2.1 3.4-.6.9-1.1 1.8-1.6 2.8-.3.5-.5.9-.8 1.4-.4.6-.7 1.3-1 1.9-.2.3-.2.7-.1 1 0 .2.1.3.3.3.3-.2.6-.3.9-.6.8-.8 1.5-1.5 2.4-2.2.5-.5 1-1 1.4-1.6.4-.6.9-1.1 1.4-1.6.9-1 1.8-1.9 2.6-3 .1-.1.2-.3.3-.4.3-.3.8-.3 1.2 0 .1.1.2.3.3.4.1.1.1.2 0 .3l-.3.6c-.8 1-1.5 2.1-2.3 3.2-.2.3-.5.7-.7 1-1.1 1.6-2.1 2.9-3 3.9-.3.3-.5.7-.8 1-.1.1-.1.2-.2.3-.7.9-3.6 3.5-4.6 4.2-.5.3-1 .6-1.5.6-.2 0-.4 0-.5.1-.9.2-1.5-.1-2-.7-.2-.2-.3-.5-.3-.8-.1-.4-.1-.9-.1-1.4zm-4.2-19.7c.1 0 .3 0 .3-.1.1-.1 0-.2-.1-.2-.1.1-.2.2-.2.3 0 .1-.1.1-.2.2l.1.1c.1-.1.1-.2.1-.3zm14.8 2.6c.1 0 .2 0 .3-.1l-.1-.1c-.1 0-.2.1-.2.2-.1 0-.2 0-.2.2l.1.1c.1-.1.2-.2.1-.3zm-4.6 7.8c-.2 0-.4 0-.6.2-.1.1-.1.2-.1.3 0 .1.1.1.3 0 .2-.1.4-.3.4-.5.1-.1.2-.2.3-.4 0-.1 0-.2-.1-.2l-.1.1c0 .2 0 .4-.1.5zm2.7-9.4H79c-.2.1-.3.3-.5.4 0 0-.1.1 0 .1.1.1.2.1.3.1.4-.1.3-.4.4-.6.1 0 .2-.1.2-.2l-.1-.1c-.1 0-.1.1-.1.3zM74.9 90c0-.1 0-.2-.1-.2l-.1.1c.1 0 .2.1.2.1v.8c-.3.4-.1.7.1 1.1l.1.1.1-.1c.1-.6.1-1.1 0-1.7 0-.1-.2-.1-.3-.2zm3.8-13.1h.3c.2-.1.3-.2.2-.3-.1-.2-.2-.4-.3-.5.2-.2.1-.4-.1-.6-.2-.1-.3-.2-.4 0l-.3.6c-.1.1 0 .4.1.4.3.1.5.2.5.4-.1 0-.2.1-.2.2 0 0 0 .1.1.1.1-.1.1-.2.1-.3zm-13.3-.4v-.4c-.2-.7-.6-.9-1.2-.4-.2.1-.3.3-.2.5.1.2.2.4.3.7.1.2.2.3.4.2.2-.1.4-.1.5-.2.1-.1.2-.3.2-.4zm-4.6 10.3c-.1 0-.3-.1-.3-.1-.4.2-.7.6-.9 1 0 0 0 .1.1.2.2.3.5.3.7-.1.2-.3.3-.6.4-.8v-.2zm12.8 4.4c-.3.1-.4.2-.4.4 0 .3 0 .5.3.7l.1.1c.1-.1.2-.2.1-.3-.1-.2-.2-.3-.2-.4 0-.1.1-.3.2-.4.1 0 0-.1-.1-.1zm-1.1-28.3h-.3c-.2 0-.3.1-.4.3 0 .1-.1.2 0 .3 0 .1.1.2.1.3.1 0 .1 0 .2-.1l.6-.6c.1-.1.1-.2 0-.2h-.2zm-5.1 6h-.5c-.3 0-.4.1-.2.3.1.1.2.3.4.3.1 0 .1-.1.2-.1.2-.1.5-.1.7-.2.1 0 .1-.1.2-.2-.1 0-.1-.1-.2-.1h-.6zm.2-1.2c.1-.1.3-.1.4-.2.1-.1.2-.2.2-.3 0-.1-.3-.2-.5-.1-.2 0-.3.1-.4.3 0 0-.1.1 0 .2.1 0 .2 0 .3.1zm-5.9 18.6c-.1 0-.1.1-.2.1v.1c.1.2.3.4.6.4.2 0 .4-.1.3-.3 0-.1-.1-.2-.2-.2-.1-.1-.3-.1-.5-.1zm18-7.6s0-.1 0 0h-.2c-.1 0-.2.1-.3.1l.2.2c.1.1.3.2.4.2h.1c.1-.1.2-.3.3-.4-.1 0-.2-.1-.3-.1 0-.1-.1 0-.2 0zm-11.9-4.8l-.1-.1c-.3.1-.5.3-.6.6 0 0 0 .1.1.1.1.1.2.1.3 0 .1-.2.3-.4.3-.6zM73.3 58c-.1 0-.1 0-.1.1-.1.2.1.3.2.4.1.1.2.1.3 0v-.2c-.1-.3-.2-.3-.4-.3zM59.5 89.5c0 .2-.1.4-.1.5 0 .1.1.2.1.3.1-.1.2-.2.2-.3 0-.2 0-.4-.1-.5h-.1zm7.2-21.6l-.1-.1c-.3 0-.4.1-.4.4l.1.1c.2 0 .3-.1.4-.3v-.1zm1.7-3.7c-.1 0-.2 0-.3.2 0 .1 0 .3.1.3s.2-.1.3-.2c.1-.1.1-.2.1-.3 0 .1-.1 0-.2 0zm4.7 26c0-.2-.1-.3-.3-.3-.1 0-.3.1-.3.2s.1.2.2.3c.1.1.2.1.3.1 0-.2.1-.3.1-.3zm1.2-4.1l-.1-.1c-.1.1-.3.2-.4.3l-.1.1c0 .1.1.1.2.1.3 0 .4-.1.4-.4zm3-9l-.1-.1h-.5l-.1.1v.1c.2.2.4.1.6 0l.1-.1zm.5 5.5l-.1.1v.3c0 .1.1.2.3.1 0 0 .1 0 .1-.1.1-.1.1-.2 0-.3-.1.1-.2 0-.3-.1zm.7-2.8l.2.2c.1 0 .2 0 .3-.1 0-.1 0-.1-.1-.2-.3 0-.4 0-.4.1zm-8.3-16.6V63l-.1-.1c-.1.1-.1.2-.1.3l.1.1c.1 0 .1 0 .1-.1zm-9.6 20.7c-.1-.1-.2-.1-.3-.2-.1-.1-.2 0-.3.1v.1c0 .1.2.2.3.1.1.1.2 0 .3-.1zm16.5-2.7c-.1-.1-.1-.1-.3 0l-.1.1.1.1c.1 0 .2 0 .3-.1v-.1zm-2.4-21.7c0-.2 0-.4-.2-.4l-.1.1c0 .1 0 .2.1.3l.1.1s.1 0 .1-.1zM77.3 78c-.1.1-.2.1-.2.2.1.1.2.1.2.2.1.1.2 0 .3-.1v-.1c0-.2-.1-.3-.3-.2zm-.7 1.1c0-.1 0-.2-.1-.3 0 0-.1 0-.1.1v.3h.1c.1 0 .1 0 .1-.1zM76 91.4c0-.1-.1-.2-.1-.2-.1.1-.2.2-.2.3 0 .1.1.2.1.2.1-.1.2-.2.2-.3zM63 76.3c-.1.1-.2.2-.2.3 0 .1.1.2.1.3.1-.1.2-.2.2-.3.1-.1 0-.2-.1-.3zm5.6-8.4c-.1 0-.2.1-.2.2-.1.1 0 .2.1.3.1 0 .2 0 .2-.1 0-.2 0-.3-.1-.4zm2.3-3.1l-.1-.1c-.2-.1-.3-.1-.4 0v.1c0 .1.1.2.3.1.1 0 .2-.1.2-.1zm1.1 1.6c.1 0 .2 0 .3-.1v-.1c0-.1-.1-.2-.3-.1-.1 0-.2.1-.2.2 0-.1.1 0 .2.1zm-4.2 5.2s0-.1-.1-.1l-.1-.1c-.1 0-.2 0-.3.1 0 .1 0 .1.2.2.1.1.2 0 .3-.1zm-.2-1c.1 0 .2-.1.3-.1-.1-.1-.2-.1-.3-.1-.1 0-.2.1-.3.1.1 0 .2.1.3.1zm11.9 7.1h.1-.1zm-16.9.1l-.1.1c0 .1.1.1.1-.1.1.1 0 0 0 0zm.7 3l-.1.1h.1v-.1zm-2.5 9.1c0-.1-.1-.1-.2 0 0 0 0 .1.1.1 0-.1.1-.1.1-.1zm11.9 3.2s-.1-.1-.1 0l-.1.1c.1.1.1.1.2 0v-.1zm.9 0zm1.1-9.2c0-.1-.1-.1 0 0-.2 0-.3 0-.1.1l.1-.1zm-.6 3.6l.1-.1h-.1v.1zM58 89.7h-.1.1zM74.8 88c-.2.1-.2.2 0 .2l.1-.1s0-.1-.1-.1zm-13.5-.5l-.1-.1-.1.1.1.1.1-.1zm12.9-26.3v.1-.1zm-2.5.2c-.2.1-.2.1 0 .2l.1-.1c-.1 0-.1 0-.1-.1zm-.4.8l-.1.1c0 .2.1.2.2 0l-.1-.1zm.8-2.7l.1-.1-.1-.1-.1.1s0 .1.1.1zm-4.2 6.6l-.1.1h.1v-.1zm1.9.8c0-.1 0-.2-.1-.2l-.1.1.1.1c0 .1 0 .1.1 0zm-.4-3.3v.1-.1zm3.3.5zm-3 .9zm3.1-6.2zm-3.8 11l-.1-.1-.1.1.1.1s0-.1.1-.1zm8.4 4.9s-.1-.1 0 0c-.2-.1-.2 0-.1.1l.1-.1zm3.6-.1h.1-.1zM64.2 73l.1.1V73h-.1zm1.9 1.1c-.1.1-.1.1.1.2l.1-.1s0-.1-.1-.1h-.1z"/><path class="st345" d="M81.3 88.1c0-.4 0-.6.1-.7 0-.7.2-1.4.4-2 .4-1.4 1.1-2.8 1.9-4.1.4-.7 1-1.4 1.5-2.1 1.7-2 3.2-3.3 5.3-4.7 1-.7 2.1-1.2 3.2-1.4.5-.3 1.1-.3 1.6-.3.4 0 .8.1 1.1.3.2.1.4.3.5.5.2.4.4.8.5 1.3 0 .1.1.2.2.2.1.1.1 0 .2-.1.4-.7.9-1.3 1.5-1.8.1-.1.2-.2.4-.2.7-.2 1.4.1 2 .4.5.2 1 .5 1.3 1l.1.1c.1.1.1.3 0 .4-.5 1-.9 2-1.4 2.9-.5.9-1 1.9-1.5 2.8-.3.5-.5.9-.8 1.4-.7 1-1.1 2.2-1.8 3.2-.2.4-.3.8-.4 1.2v.3c0 .1.2.3.3.2.2-.1.5-.2.7-.4.6-.5 1.1-.9 1.6-1.4 1.5-1.4 2.9-3 4.2-4.5.1-.2.3-.3.4-.4.4-.4 1.1-.2 1.4.3 0 .1.1.2.1.3.1.2.1.5 0 .7-.1.3-.2.6-.4.8-.4.5-.7 1-1.1 1.4-.4.4-.8.8-1.1 1.2-1 1.1-2 2.2-3 3.4-.7.8-1.4 1.4-2.2 2.1-.2.2-.4.3-.6.5-.5.5-1.1.8-1.7 1.2-.1.1-.3.1-.4.2-.3.1-.6.1-.9.1-.6.1-1.3-.3-1.5-.9-.3-.7-.5-1.3-.5-2.1v-1.5s0-.1-.1-.1c0 0-.1 0-.1.1l-.6.6c-.8.9-1.6 1.9-2.5 2.8-.6.7-1.3 1.2-2.1 1.7-.2.2-.5.2-.8.3-.2 0-.4 0-.6.1-1 .2-1.9-.3-2.6-.8-.9-.7-1.4-1.7-1.7-2.8-.2-.7-.1-1.3-.1-1.7zm18.9-14.2c0 .1 0 .2.1.3.1 0 .2 0 .1-.1 0-.1-.1-.1-.2-.2 0-.1 0-.1-.1-.2h-.1c0 .3.1.2.2.2zM89 77.8c.3-.1.3-.1.2-.2h-.1s-.1.1-.1.2c-.2.1-.3.1-.2.2h.1c.1 0 .1-.1.1-.2zm1.9-.7c-.1 0-.2 0-.2.1l.1.1c.1 0 .1-.1.1-.2s.1-.1.2-.2c0 0 0-.1-.1-.1 0 .2 0 .2-.1.3zm8.3 1h-.4l-.1.1c.1 0 .1.1.2.1.2.1.2-.1.3-.2 0-.1.1-.1.2-.2l-.1-.1c0 .2 0 .3-.1.3zm-13.6 9.1s0 .1 0 0c0 .1 0 .2.1.2.1.1.1 0 .2-.1.1-.2.2-.3.3-.3.1 0 .2 0 .3.1.1 0 .2.1.3.2.2.2.4.3.7.3.3 0 .5-.1.7-.3.7-.5 1.3-1.1 1.8-1.7.7-.7 1.4-1.4 1.9-2.3.3-.4.6-.8.9-1.1.2-.2.4-.4.5-.6 1.1-1.5 2.1-3 3.2-4.5.1-.1 0-.4-.1-.4-.1-.1-.2-.2-.4-.2-.3-.1-.7 0-1 .1-.9.4-1.8 1.1-2.5 1.8-.7.6-1.3 1.3-1.9 2-.2.2-.5.5-.6.8-.6 1-1.4 1.9-2 2.9-.4.6-.8 1.2-1 2 0 .2-.2.3-.3.4-.1.1-.3.1-.4.1-.1-.1-.1-.2-.2-.2-.1-.2-.2-.2-.3 0-.1.1-.2.4-.2.8zm-.4-1.7s0-.1-.1-.1c-.2-.2-.5-.4-.8-.3-.2 0-.4.1-.6.1l-.1.1s0 .1.1.1c.2.1.3.2.4.4.1.2.2.2.4.1.2-.2.5-.1.7-.2v-.2zm.5 2.8c-.1 0-.2 0-.4.1 0 0-.1 0-.1.1-.2 0-.3.4-.2.5l.1.1c.1 0 .2.1.3.1 0-.1.1-.2.1-.3.1-.2.1-.2.3-.1.1.1.2.1.2 0 0 0 0-.1.1-.1 0-.1 0-.2-.1-.2 0-.1-.1-.1-.3-.2zm10.8-5.7c0-.1 0-.3-.1-.4-.1 0-.2-.1-.2-.1-.1 0-.2.1-.1.2s.1.2 0 .3c-.1.1-.2.1-.3.1l-.1.1c0 .1.1.2.1.2.4.1.7 0 .7-.4zm-1.4 6.2s0-.1-.1-.1c-.2-.3-.3-.3-.5 0 0 .1-.1.2-.1.3-.1.2 0 .3.2.3s.4-.1.5-.3v-.2zm-10.8-.2v-.2c0-.2-.2-.3-.3-.2-.1.1-.3.2-.3.4v.3c0 .1.1.2.2.2.1.1.4-.1.4-.2-.1-.1-.1-.1 0-.3zm1.9-5.9l-.1.1c-.2.3-.1.5-.1.8 0 0 0 .1.1.1.1.1.2 0 .3-.1.2-.1.2-.3.1-.4-.1-.1-.2-.3-.3-.5zm-1.5 1.4c0 .1.1.2.1.3.1.1.3.2.4.1.1-.1.1-.2 0-.3-.1 0-.2-.2-.2-.3-.1-.1-.3-.2-.4-.1-.1.1-.1.1 0 .2 0 .1 0 .1.1.1zm.8 7.9c0-.2-.1-.3-.3-.2-.2.1-.3.2-.2.4.1.2.1.3.3.2.1-.1.2-.2.2-.4zm7.8-17l.1-.1-.3-.3c-.1-.1-.2-.1-.2.1v.2c.1.1.2.1.4.1zm0 11v-.1c-.1 0-.2-.1-.3 0-.1 0-.1.1-.1.3 0 .1 0 .2.1.2 0 0 .1 0 .1-.1.1-.1.1-.2.2-.3zm1.1-.5c-.1 0-.2.1-.3.1 0 .1.1.2.1.3.1.2.3.2.3 0v-.3c.1-.1 0-.1-.1-.1zm-6.7 6.4c0-.1 0-.2-.1-.3-.1-.1-.4-.1-.4 0s0 .2.1.3l.2.2c.1 0 .1 0 .2-.2zm7.7-11.3h-.1c-.1.1-.1.1.1.3.1.1.2.1.2-.1v-.2c-.1.1-.1 0-.2 0zm-7.9 8.3l.1.1c.1-.1.2-.1.2-.2.2-.2.2-.3 0-.3-.1 0-.3.1-.3.2v.2zm-4.7-.7c-.1 0-.2.1-.4.2.1.1.3.1.4.2h.2c.1 0 .2-.1.3-.2-.1 0-.2-.1-.2-.1-.2-.1-.2-.1-.3-.1zm5.8-7.5l-.1-.1c-.1 0-.2.1-.3.1-.1.1-.1.2-.1.3.1 0 .2.1.3.1.1 0 .2-.1.2-.2v-.2zM83.5 84c0 .3.1.4.3.4l.1-.1c0-.2-.2-.4-.4-.4v.1zm17-5.7s.1 0 .1-.1c.2-.2.2-.3.1-.3h-.1c-.2 0-.2.1-.1.4-.1-.1 0-.1 0 0zm-5.9 5c-.1 0-.2.1-.2.2 0 .2.1.3.2.3s.2 0 .2-.1v-.1c0-.2-.1-.3-.2-.3zm4.8-4c-.1-.1-.1-.2-.2-.3-.1-.1-.2-.1-.2 0-.1.1-.1.2 0 .3.1.2.2.2.3.2 0-.1 0-.2.1-.2zm-1.8 1.9l-.1-.1c-.1 0-.2 0-.2.1-.1.1 0 .2.1.2 0-.1.1-.1.2-.2 0 .1 0 0 0 0zm-1.4 6.1c-.1-.1-.1-.1-.2 0l-.1.1.1.1s.1 0 .2-.2c0 .1 0 .1 0 0zm-2.1-.2c-.2 0-.3.1-.3.2l.1.1c.1 0 .3-.1.2-.3zm.5-4.5l-.1-.1c-.1 0-.2 0-.3.1v.1h.3c.1 0 .1-.1.1-.1zm-2.5 3.5L92 86c-.1 0-.2 0-.3.1l.1.1c.1 0 .2 0 .3-.1zm-8.9-.2h-.1l-.1.1c0 .1 0 .2.1.3.1 0 .2 0 .2-.2.1 0 0-.1-.1-.2zm13.7-1.1l-.1-.1c-.1 0-.2 0-.2.1v.1h.3c-.1 0-.1-.1 0-.1zm1.4-8.1s0 .1 0 0c.1.1.2.1.2.2 0 0 .1 0 .1-.1s0-.1-.1-.1c-.1-.1-.2 0-.2 0zm-.7 2.9c-.2.2-.2.4-.1.4h.1c0-.1.1-.2.1-.3 0-.1 0-.1-.1-.1zm-1.2.4c.1-.1.1-.1.1-.2s-.1-.1-.2-.1-.1.1-.1.2c.1.1.1.1.2.1zM88 78.6c0-.1-.1-.2-.1-.3l-.1.1v.3h.1c.1 0 .2-.1.1-.1zm2.7.3l-.1.1c-.1.1 0 .2.1.3l.1-.1c.1-.2 0-.3-.1-.3zm-1.5.4c.1-.1.1-.1.1-.3 0-.1-.1-.2-.2-.1 0 .1-.1.2-.1.3.1.1.1.2.2.1zm.8-1.4l.1.1.1-.1v-.3h-.1c0 .1-.1.2-.1.3zm6.7 2.6c-.1.1-.1.1-.1.2s0 .2.1.2c0 0 .1-.1.1-.2 0 0 0-.1-.1-.2zM86 89.8l.1.1h.1l.1-.1c-.1 0-.1-.1-.2-.1s-.1.1-.1.1zm-2.1.5l-.2-.2c-.1 0-.2 0-.3.1v.1c.1.1.2.1.3.1 0 .1.1 0 .2-.1zm11-.3l-.1.1v.2l.1.1c.1 0 .1-.1.1-.2.1-.1 0-.2-.1-.2zm-9.1-9c0-.1-.1-.2-.1-.2-.1 0-.1 0-.2.2 0 .1 0 .2.1.2l.2-.2zm10.9 8.9l.1-.1c.1-.1 0-.2 0-.2h-.1c-.1 0-.1.1 0 .3zm.3-11.3s-.1.1 0 0c0 .2 0 .2 0 0 .1.1 0 0 0 0zm-9.7 1.2l.1-.1-.1-.1-.1.1s0 .1.1.1zm-3 1.8l.1-.1h-.1v.1zm2.6-1.3s-.1 0 0 0c0 .2 0 .2 0 0 .1.1.1 0 0 0zm1.6-.4v.1h.1l-.1-.1zm11.4-1.1zm-12.6 3.6s0-.1-.1-.1l-.1.1s0 .1.2 0c-.1.1-.1 0 0 0zM99 80.5zm-14.2 9.7l-.1-.1-.1.1c0 .1.1.2.2.1v-.1zm1.3 1c0-.1-.1-.1 0 0-.2 0-.2 0-.1.1 0 0 0-.1.1-.1zm5.4-5.8zm1.1-.1h.1-.1zm4.4-2.4l-.1-.1-.1.1s0 .1.1.1c0-.1.1-.1.1-.1zm-4.9 1.5zm1.2-.3zm3.6-.4s-.1.1 0 0c0 .2 0 .2 0 0 .1.1 0 0 0 0zm-2.5 4.1zM96 89c-.1 0-.1-.1 0 0-.1-.1-.1 0-.2 0 0 0 0 .1.2 0-.1.1-.1 0 0 0zm2.1-.2zm-13.3-1.5l.1-.1-.1-.1s-.1.1 0 .2zm10.4-1.2c-.1 0-.1-.1 0 0-.2 0-.2 0-.2.1l.1.1s0-.1.1-.2zm-4 1.3c-.1 0-.1-.1 0 0-.1 0-.2 0-.2.1l.1.1c.1-.1.1-.1.1-.2zm-1-.2zm9.7-9.5l.1-.1h-.1v.1zm1.9-2c0-.1-.1-.1-.2 0l.1.1s0-.1.1-.1zm-1.5.3h-.1.1zm-.6.3c-.1 0-.1 0 0 0-.1.2 0 .2 0 0 .1.1 0 0 0 0zm1.8-1.9s-.1-.1 0 0h-.2s0 .1.1.1.1 0 .1-.1zm-1.2.7z"/><path class="st345" d="M116.5 65.6c.1.2.2.3.4.3.5-.2 1-.2 1.6-.2h.2c.7-.3 1.5-.2 2.2-.2.3 0 .7.1 1-.2h.6c.1 0 .3.2.4.2.3.1.6.3.7.6.2.3.4.7.3 1.2v.9c0 .5 0 .9-.2 1.4-.1.1-.1.3-.1.4 0 .3-.2.5-.4.6-.1.1-.2 0-.3-.1-.1-.1-.1-.2-.1-.4 0-.1 0-.3-.1-.4-.2-.6-.6-1-1.1-1-.8 0-1.6-.1-2.5.2-.6 0-1.2.3-1.9.4-.2 0-.5.2-.7.2-.2.1-.5 0-.7.1-.4.2-.7.2-1.1.2-.1 0-.2 0-.2.1-.2.1-.5.2-.6.5-.4.8-.8 1.6-1.2 2.3-.5.7-.8 1.4-1.2 2.1-.1.1-.1.2-.2.3-1.1 2.5-2.4 4.9-3.5 7.5-.4.9-.6 1.8-1 2.8-.1.2-.1.4-.1.6 0 .3.2.5.4.4.2 0 .4 0 .5-.1.4-.3.8-.5 1.2-.8.7-.6 1.5-1.3 2-2.1.3-.4.6-.7.8-1 .2-.2.4-.4.7-.5.1 0 .2-.1.2 0 .3.1.6.4.6.8 0 .2 0 .4-.1.6-.3.4-.5.9-.9 1.4-.5.7-1.1 1.3-1.6 2.1-.7.8-1.3 1.7-2.1 2.4-.3.3-.5.6-.8.9-.6.6-1.2 1.2-1.9 1.6-.7.5-1.5.6-2.3.5-.3 0-.6-.2-.8-.4-.4-.3-.8-.7-.8-1.3-.2-.4-.2-.9-.2-1.3V89c0-.4 0-.9.1-1.3.2-.6.2-1.1.4-1.7.2-.7.3-1.3.6-2 .2-.6.5-1.3.7-1.9.2-.6.4-1.2.7-1.7.7-1.4 1.2-2.9 1.8-4.2L108 72c.1-.1.1-.3.2-.4 0-.1 0-.4-.1-.4s-.2-.1-.2-.1c-.4.3-.9.3-1.3.2-.4 0-.8 0-1.2-.2-.2-.1-.4-.1-.5-.1-1.2-.2-2.1-.8-2.9-1.8-.4-.5-.5-1.1-.7-1.7v-.3c0-.3.1-.5 0-.8-.1-.7.2-1.2.4-1.8.2-.5.4-.9.8-1.3l.2-.2c.4-.5.9-.9 1.5-1.1l.6-.3h.3c.1 0 .2.1.2.2v.3c-.7.6-1.1 1.5-1.5 2.4-.2.4-.1.8-.1 1.2 0 .1.1.2.1.3.4.7 1 1.2 1.7 1.3l.9.3h1.6c.2 0 .4 0 .5-.1.3-.2.7-.1 1-.2.2 0 .4-.1.6-.1.2-.1.4-.1.6-.2.2-.1.3-.4.4-.6.3-.5.6-1.1 1-1.6.3-.4.5-.8.8-1.2l.9-1.2c.2-.3.5-.5.8-.7.2-.1.5-.2.7-.1.2.1.4.2.6.2.6.1 1.1.5 1.5.9.1.1.2.3.3.4.1.1.1.3 0 .4l-.9 1.8c-.1.1-.2.2-.3.2 0-.1 0-.1-.1-.2h-.1c-.1.1-.1.1.2.2zM109 70c0 .1.1.2.1.2s0-.1.1-.1c-.1 0-.2 0-.2-.1-.1 0-.1 0 0 0l-.2-.2c0 .1.1.2.2.2zm-3.4 14.2c.3-.1.3-.2.3-.3 0-.1-.1-.1-.1-.2-.1.1-.2.1-.2.2s.1.2 0 .3c-.1 0-.1.1-.2.2l.1.1c.1-.1.1-.2.1-.3zm-2.2 1.7h.3c.1 0 .2-.1.2-.1 0-.1-.1-.2-.1-.2l-.2-.2c-.1 0-.2 0-.3.1v.1c0 .1.1.2.1.3 0 .1-.1.1-.2.2l.1.1c0-.1.1-.2.1-.3zm1.6 2.4c.3 0 .5 0 .6.4l.1.1c.1-.1.1-.1.1-.2.1-.2 0-.3-.1-.4-.2-.2-.4-.3-.6-.4-.1 0-.2 0-.2.1v.1c0 .1.1.2.1.3 0 0-.1 0-.2.1h-.1c-.1 0-.1.1-.1.2.1.2.2.3.4.3.2-.1.1-.3.1-.4-.1-.1-.1-.2-.1-.2zm6.6-18v.3c0 .1 0 .2.1.2s.1-.1.2-.1c.1-.1.1-.1.1-.2-.1 0-.1-.1-.2-.1s-.2 0-.2-.1c0 0 0-.1.1-.2.1-.3.1-.4-.1-.3-.4.1-.6-.2-.9-.3-.1 0-.2 0-.2.1v.3c.1.2.2.4.5.4h.6zm1.2-3.4c0-.1 0-.1 0 0-.3-.2-.4.1-.7.2-.1 0-.1.1-.2.1v.2l.3.3c.2.1.2-.1.2-.2.1-.2.2-.3.3-.5l.1-.1zm3.3.1c0-.1-.1-.1 0 0-.2-.1-.3-.1-.3-.1-.1 0-.6.3-.8.4v.3c0 .1.1.1.2.1s.2-.1.3-.2c.1-.3.3-.4.6-.5-.1 0 0 0 0 0zm-1.7-2.2c-.3 0-.5.1-.7.2-.1 0-.1.1-.1.2l.1.1s.1 0 .1.1c.5.3.6.3.7-.4 0-.1-.1-.2-.1-.2zm-2.1 6v.1c.1.2.3.3.4.1l.2-.2s0-.1.1-.1c-.1 0-.2-.1-.3-.1-.2.1-.3.1-.4.2zM103 89.6c.1 0 .2 0 .2-.1.1-.2 0-.3-.1-.4-.1 0-.3.1-.3.2 0 .2.1.3.2.3zm1.2-5h.1s.1 0 .1-.1v-.2c-.2-.2-.3-.2-.4 0-.1.1-.1.2-.1.2.1 0 .2.1.2.1h.1zm5.3-15.2c0-.1-.1-.2-.1-.2h-.2c-.1.1 0 .2.1.3l.1.1s.1-.1.1-.2zm6.8-.9l-.1-.1c-.1 0-.1.1-.2.1-.1.1-.1.1-.1.2 0 0 0 .1.1.1.1.1.2.1.3-.1v-.2zm-9.5 12.7c0-.3 0-.4-.3-.3l-.1.1c0 .2.2.4.3.4 0-.1 0-.2.1-.2zm13.1-13.6c0-.1-.1-.1-.1-.2-.1-.1-.2 0-.2.1s0 .1.1.2c.1 0 .2 0 .2-.1zm-13.4 19.5c.1.2.3.2.3.1v-.1c0-.2-.2-.2-.3 0zm-1.6-2.1h-.2l-.1.1.1.1c.1 0 .1-.1.2-.2 0 .1 0 .1 0 0zm4.7-8.8v-.1l-.1-.1c-.1 0-.1.1-.1.2 0 0 0 .1.1.1l.1-.1zm.2-4.2s0-.1 0 0c-.2-.1-.2-.1-.3 0 0 0 0 .1.1.1s.2 0 .2-.1c0 .1 0 0 0 0zm-5.5-3.7s0-.1 0 0c-.2-.1-.2 0-.3 0v.1c.1 0 .2 0 .3-.1 0 .1 0 0 0 0zm9.2-.3h-.1c-.1 0-.1.1-.1.1 0 .1.1.1.2.1V68c0 .1 0 0 0 0zm-6.8 20.2c0 .1-.1.1-.1.2s.1.2.1.2c0-.1.1-.2.1-.2 0-.1 0-.1-.1-.2zm6.1-18.8c0-.1-.1-.1-.1-.2 0 .1-.1.2-.1.2 0 .1.1.2.1.2.1 0 .1-.1.1-.2zm-5.4 10.9c.1 0 .1.1.2.1s.2 0 .2-.1v-.1c0-.1-.1-.1-.2-.1 0 .1-.1.2-.2.2zm1.3-5.5v-.1c0-.1-.1-.1-.2-.1-.1.1-.1.1-.1.2.1.1.1.1.2.1s.1-.1.1-.1zm.6-.2c0-.1-.1-.2-.1-.3 0 .1-.1.2-.1.2 0 .1.1.2.1.2.1.1.2 0 .1-.1zm-5.1 7.4zm2.6-2.9zm-.8.4c0-.1 0-.1 0 0-.1-.1-.1 0-.2 0h.2c-.1 0 0 0 0 0zm-1 9.9zm-2-1.4s0-.1 0 0c-.1-.1-.1 0-.2 0 .1 0 .1.1.2 0 0 .1 0 0 0 0zm1 0c.1 0 .1-.1 0-.1v.1c0-.1 0 0 0 0zm.6-1.4zm.9.3c0-.1-.1-.1-.2 0 .1 0 .1.1.2 0 0 .1 0 0 0 0zm5.5-18.5zm4.6 0s-.1 0 0 0c-.1-.1-.1 0-.1 0s0 .1.1 0c-.1.1 0 .1 0 0zm-9.6.5c-.1-.1-.1-.1-.2 0l.1.1c.1 0 .1 0 .1-.1zm-1.2.4zm10.1-2.6s0-.1-.1-.1l-.1.1h.2c-.1.1 0 0 0 0zm3.4.9c0-.1-.1-.1-.1 0h.1c-.1 0 0 0 0 0zm-1.1.2zm-2.4.3zm-.7-4.7zm-7.6 14.1zm2.1-.6zm-.7.9zm.5 0s0-.1 0 0c-.2 0-.2 0 0 0 0 .1 0 .1 0 0zm2.5-4.9zm-.7 1.2zm-2.1-4c-.1 0-.1.1 0 0-.1.2 0 .2 0 0 0 .1 0 0 0 0zm-.7 5.2c-.1 0-.1.1 0 0-.1.2 0 .2 0 0 0 .1 0 0 0 0zm1.6.4s0-.1 0 0c-.1-.1-.1 0-.2 0h.2zM71.6 13.3c.1.3.4.4.6.3.8-.3 1.6-.4 2.5-.5.1 0 .3 0 .4-.1 1.2-.5 2.4-1 3.6-1.2.6-.1 1.2 0 1.7-.3.3 0 .6-.1 1 0 .3 0 .5.2.7.2.6 0 1 .3 1.3.7.4.4.7.9.7 1.5 0 .4 0 .8.1 1.1 0 .6.1 1.3-.2 1.9-.1.2-.1.4-.1.6 0 .5-.3.6-.7.8-.2.1-.4.1-.5-.1-.1-.1-.2-.3-.3-.5-.1-.2-.1-.4-.2-.5-.4-.8-1.1-1.2-2-1.2-1.4 0-2.7.6-4 1.1-1 .1-2 .6-3 .7-.4.1-.7.3-1.1.4-.4.1-.8.1-1.1.2-.5.3-1.1.3-1.7.4-.1 0-.3 0-.4.1-.3.2-.7.3-.9.7-.5 1-1 2.1-1.6 3-.6.9-1 1.9-1.6 2.8-.1.1-.1.2-.2.3-1.4 3.2-3.1 6.2-4.3 9.5-.4 1.1-.7 2.3-1.1 3.4-.1.2 0 .5 0 .7 0 .3.3.6.6.5.3 0 .5-.1.7-.2.6-.3 1.1-.6 1.6-1 1-.8 2-1.6 2.8-2.6.4-.4.8-.8 1.2-1.3.3-.3.6-.5 1-.6.1-.1.3-.1.4-.1.5.2.9.4 1.1 1 .1.2.1.5-.1.7-.4.6-.7 1.2-1.2 1.7-.8.9-1.5 1.7-2.1 2.7-1 1-1.8 2.2-2.9 3-.4.3-.7.7-1.1 1.1-.8.7-1.7 1.4-2.6 2-1 .6-2.1.7-3.2.6-.4 0-.9-.2-1.2-.5-.6-.4-1.1-.8-1.3-1.6-.3-.5-.4-1-.4-1.6v-.2c0-.5-.1-1 0-1.5.2-.7.2-1.4.4-2 .2-.8.3-1.6.6-2.4.3-.8.5-1.5.8-2.3.2-.7.5-1.4.8-2.1.8-1.7 1.3-3.5 2.1-5.2.8-1.8 1.7-3.5 2.5-5.3.1-.2.1-.4.2-.5.1-.1-.1-.4-.2-.5-.1 0-.3-.1-.4-.1-.6.3-1.2.4-1.9.4-.6 0-1.2.1-1.7-.1-.2-.1-.5-.1-.8-.1-1.7-.1-3.1-.8-4.3-1.9-.6-.5-.9-1.2-1.2-1.9-.1-.1-.1-.2-.1-.4 0-.3 0-.6-.1-.9-.2-.8.2-1.5.3-2.2.2-.6.5-1.2.9-1.6.1-.1.2-.2.2-.3.5-.7 1.2-1.2 1.9-1.6.3-.1.6-.3.9-.4.1 0 .3-.1.4 0 .1 0 .3.1.3.2v.3c-.9.9-1.4 1.9-1.9 3-.2.5-.1 1 0 1.5 0 .1.1.2.2.3.7.8 1.5 1.3 2.6 1.4.4 0 .9.2 1.3.2.8 0 1.6-.1 2.3-.1.3 0 .5 0 .8-.1.5-.2 1-.3 1.5-.3.3-.1.6-.1.9-.2.3-.1.7-.2.9-.3.2-.2.4-.5.5-.8.4-.7.8-1.4 1.3-2.1.3-.5.7-1.1 1-1.6.4-.6.9-1.1 1.2-1.7.3-.4.7-.7 1.1-1 .4-.2.7-.3 1.1-.2.3.1.6.2.9.2.9.1 1.7.5 2.5.9.2.1.4.3.6.5.1.1.2.3.1.5-.4.8-.7 1.6-1.1 2.4.1 0-.1.3-.3.3 0-.1-.1-.2-.2-.2h-.1c-.1 0-.1.1.3.2zm-10.9 6.3c.1.1.1.2.2.3l.1-.1c-.2-.1-.3-.1-.3-.2-.1 0-.1-.1-.1-.1s-.1 0-.1-.1c-.1.1 0 .2.2.2zm-3.3 17.6c.4-.2.5-.2.4-.4 0-.1-.1-.2-.2-.2-.1.1-.2.1-.2.2v.4c-.1 0-.2.1-.2.2l.1.1c.1 0 .2-.1.1-.3zm-3 2.1h.4c.1 0 .2-.1.3-.2-.1-.1-.1-.2-.2-.3-.1-.1-.2-.2-.3-.2-.1 0-.2.1-.3.1v.1c0 .2.1.4.1.5 0 .1-.1.2-.2.2l.1.1c0-.1.1-.2.1-.3zm2.5 2.9c.4-.1.7.1.9.5l.1.1c.1-.1.1-.2.2-.3.1-.2 0-.4-.2-.5-.3-.2-.6-.3-1-.5-.1-.1-.3 0-.3.1v.2c.2.1.3.3.3.4-.1.1-.2.1-.3.1h-.2c-.1.1-.2.1-.1.2.1.2.4.4.6.3.2-.1.1-.3.1-.5l-.1-.1zm7.7-22.5v.4c0 .1 0 .3.2.3.1 0 .2-.1.3-.2.1-.1.1-.2.2-.3-.1 0-.2-.1-.3-.1-.2 0-.4 0-.4-.1 0 0 0-.2.1-.3.2-.4.2-.5-.2-.4-.5.1-1-.2-1.5-.3-.1 0-.3 0-.3.2v.3c.2.3.4.5.7.5.4.1.8.1 1.2 0zm1.4-4.4c-.1 0-.1-.1-.2-.1-.4-.1-.5.3-.8.4-.1 0-.2.1-.3.2v.4l.4.4c.3.2.2-.1.3-.3.1-.2.3-.4.4-.6.2-.2.2-.3.2-.4zm5.2-.3c-.1 0-.1-.1-.2-.1h-.4c-.2 0-.9.4-1.1.6-.1.1 0 .2 0 .3 0 .1.2.2.3.1.2 0 .4-.1.5-.3.2-.3.4-.4.8-.5l.1-.1zm-2.9-2.5h-.1l-.9.3c-.2.1-.3.2-.2.2 0 0 .1.1.2.1s.1 0 .2.1c.8.4 1 .3 1-.6-.1 0-.2-.1-.2-.1zm-2.5 7.8v.2c.1.2.4.3.6.1.1-.1.2-.2.2-.3 0 0 0-.1.1-.2-.2 0-.3-.1-.5-.1-.2.1-.3.2-.4.3zM54.3 43.8c.1 0 .2 0 .3-.1.1-.2 0-.4-.1-.5-.1 0-.4.1-.4.2-.1.2 0 .3.2.4zm1.1-6.1h.1c.1 0 .1 0 .2-.1s0-.2-.1-.3c-.2-.2-.4-.2-.6 0-.1.1-.1.2-.2.3.1 0 .2.1.3.1h.3zm5.9-18.9c-.1-.1-.1-.2-.2-.3-.1 0-.2 0-.3.1-.1.1 0 .3.2.4.1 0 .1.1.2.1 0-.1.1-.2.1-.3zm10.4-1.9l-.1-.1c-.1 0-.2.1-.3.2-.1.1-.1.2-.2.3l.1.1c.2.1.4 0 .5-.1v-.4zm-13 16.6c0-.3-.1-.5-.4-.4-.1 0-.1.1-.1.1 0 .2.3.5.5.5-.1 0 0-.1 0-.2zm18.7-18.1c-.1-.1-.1-.2-.2-.2-.1-.1-.3 0-.3.1s.1.2.2.2c.2.1.3 0 .3-.1zM59 40.7v.1c.2.1.4.1.5 0v-.1c-.1-.2-.4-.1-.5 0zm-2.5-2.5h-.3c-.1 0-.1.1-.1.1l.1.1c.1 0 .2 0 .3-.1v-.1zm5.8-11V27c0-.1-.1-.1-.1-.1-.1.1-.2.2-.1.3 0 .1 0 .1.1.1l.1-.1zm-.1-5.2l-.1-.1c-.1 0-.2 0-.3.1l.1.1h.3V22zm-8.5-4l-.1-.1c-.1 0-.2.1-.3.1v.1h.3c.1 0 .1-.1.1-.1zm13.5-1.4H67c-.1 0-.2.1-.2.2.1.1.2.1.3.1.1 0 .1-.1.2-.2 0 0-.1 0-.1-.1zm-7.7 25.5c-.1.1-.2.2-.1.3 0 .1.1.2.2.3.1-.1.1-.2.1-.3 0-.1-.1-.2-.2-.3zm6.9-23.6c-.1-.1-.1-.2-.2-.3-.1.1-.1.2-.1.3 0 .1.1.2.2.3 0-.1 0-.2.1-.3zm-6.8 13.9c.1.1.2.1.3.2.1.1.2 0 .3-.1v-.1c-.1-.1-.2-.2-.3-.1-.1 0-.2 0-.3.1zm1.3-6.9v-.1c-.1-.1-.2-.1-.3-.1-.1.1-.2.2-.1.3.1.1.2.1.3.1 0-.1 0-.1.1-.2zm.8-.3c0-.1-.1-.2-.2-.3 0 .1-.1.2-.1.3 0 .1.1.2.2.3.1-.1.2-.2.1-.3zm-6.6 9.4h.1-.1zm3.4-3.7l-.1-.1v.1h.1zm-1.1.5l-.1-.1-.1.1.1.1.1-.1zm-.3 12.1l.1.1v-.1h-.1zm-3-1.7l-.1-.1-.1.1.1.1c.1 0 .1-.1.1-.1zm1.5 0c.2-.1.2-.1 0-.2l-.1.1c0 .1 0 .1.1.1zm.6-1.6l.1.1v-.1h-.1zm1.4.3c-.1-.1-.1-.1-.2 0l.1.1s0-.1.1-.1zm5.9-23.1l-.1-.1v.1h.1zm7-.5l-.1-.1-.1.1.1.1s.1 0 .1-.1zm-14.3 1.7c-.1-.2-.2-.2-.3 0l.1.1c.1 0 .2-.1.2-.1zm-1.7.5zm14.7-4.3l-.1-.1-.1.1.1.1c.1 0 .1-.1.1-.1zm5.6.7c-.1-.2-.1-.2-.2 0l.1.1.1-.1zm-1.7.5v.1-.1zm-3.9.6l-.1.1h.1v-.1zm-1.6-5.9l.1.1v-.1h-.1zM57.9 29v.1-.1zm3-.9l.1.1v-.1h-.1zm-.9 1.2l-.1-.1v.1h.1zm.8 0l-.1-.1c-.2.1-.2.1 0 .2 0 0 0-.1.1-.1zm3.1-6.2l-.2-.1v.1h.2zm-.9 1.5l.1.1v-.1H63zm-3.7-4.8l-.1.1c.1.2.2.2.2 0l-.1-.1zm-.4 6.5l-.1.1c.1.1.2.1.2 0l-.1-.1zm2.5.3l-.1-.1-.1.1.1.1.1-.1zm27 3.1c0-.8 0-1.7.1-2.5 0-.4-.2-.8-.3-1.1l-.1-.1c-.1 0-.1 0-.1.1-.9.8-1.9 1.6-2.8 2.5-.7.6-1.4 1.3-2.2 1.9-.1.1-.2.2-.3.2-1 .6-1.9 1.5-2.8 2.2l-.9.6c-.4.2-1-.1-1-.5-.1-.5 0-.9.4-1.2l.6-.6c1.5-1.4 3-2.7 4.5-4.1 1.2-1.4 2.6-2.6 3.9-3.9.4-.4.8-.9 1.3-1.4.4-.4.7-.7.7-1.3.5-.9 1-1.8 1.8-2.4.3-.3.6-.6 1.1-.7.6-.2 1.2-.4 1.8-.3 1 0 1.9.5 2.6 1.1l.2.2c.3.4.4.8.2 1.2-.2.4-.4.7-.6 1-.8.9-1.6 1.7-2.6 2.4-.6.2-.6.7-.5 1.1.2.7.2 1.3.2 2v3.8c0 .1.3.3.4.2.1 0 .1 0 .2-.1l.6-.3c1.4-1 2.8-1.9 4.1-3 .7-.5 1.3-1 2-1.6.1-.1.3-.2.4-.3.5-.3 1.1 0 1.3.4.1.4.1.8-.2 1.1-.8.8-1.6 1.5-2.5 2.2-.2.2-.5.3-.7.5-1.1 1-2.4 1.9-3.6 2.9-.3.2-.6.4-.8.6-.3.2-.6.5-.9.7-.2.2-.3.4-.4.7 0 .4-.1.9-.1 1.3s0 .9-.2 1.3c-.1.1-.1.3-.1.5 0 .3 0 .7-.1 1-.2.5-.3 1-.4 1.4-.1.4-.3.8-.5 1.2-.4 1.1-1.1 2.1-2 2.8-.6.5-1.3.8-2 .7h-.2c-1.4.1-2.5-.6-3.5-1.5-.7-.7-1.3-1.6-1.8-2.4-.6-.9-1.3-1.9-2.1-2.6-.3-.3-.6-.6-1.1-.8-.1 0-.2-.1-.3-.2-.2-.2-.2-.7.1-.9.4-.2.8-.3 1.3-.5.1-.1.2-.2.1-.4s-.1-.3-.2-.5c-.1-.5.2-.7.7-.7.1 0 .2 0 .3.1.3.1.6.3.9.4.4.2.9.2 1.3.3.7 0 1.4.1 2.1-.1.5-.1 1-.4 1.4-.5.8-.2 1-.8 1.1-1.5.1-.4 0-.8 0-1.2.2-.4.2-.9.2-1.4zm1.8 11.9c.1 0 .2-.1.3-.1l-.1-.1c-.1.1-.1.2-.2.2 0 .1-.1.1-.2.2l.1.1c0-.1 0-.2.1-.3zm3-21.9c-.2 0-.3.1-.3.3 0 .1 0 .2.1.2l.1-.1c.1-.2.1-.3.1-.4.1-.1.2-.1.3 0 .1 0 .2 0 .3-.1l-.1-.1h-.3c-.1 0-.1.1-.2.2zm-4.6 4.5h.5c.2 0 .2-.1 0-.2H89c-.2 0-.3.1-.4.2 0 .1-.1.1-.2.2l.1.1c.1-.1.1-.2.1-.3zm1.2 8.1c-.3 0-.4.1-.5.3-.1.1-.1.2 0 .2h.3l.1-.1c0-.1 0-.3.1-.4.1 0 .2 0 .3-.1 0-.1 0-.2-.2-.1-.1 0-.2.1-.1.2zm.5 5.7h-.4v-.4c-.1-.2-.1-.3-.3-.3-.1 0-.3 0-.2.1 0 .1.1.2.1.3.1.1.2.2.4.2-.1.5.2 1 .4 1.4l.1.1c0-.1.1-.2.1-.3 0-.2 0-.3-.1-.5-.1-.1-.1-.4-.1-.6.1-.1.2-.1.2-.2.1-.1.1-.2 0-.3l-.1-.1c-.1.1-.1.2-.2.2.1.2.1.3.1.4zm-.3-3.4v-.8c0-.1-.1-.1-.2-.2h-.2c-.1 0-.2.1-.1.2.2.3.2.7.5.8 0 .1 0 .2-.1.3-.1.3-.1.4.2.4.3 0 .5.1.6.4.1.2.3.2.4.1.1-.1.1-.2.2-.3.1-.3-.1-.5-.3-.5-.3 0-.6-.3-1-.4zm-2.2 2.5c0-.4-.2-.5-.3-.5-.5.2-1.1.4-1.6.5-.6.1-1.3 0-1.9.1-.1 0-.2.1-.2.2v.2c.6.8 1.3 1.4 2.1 1.9.2.2.5.2.8.1.1 0 .2-.1.3-.1.2-.3.4-.6.5-1.1 0-.3.1-.6.3-1 .1-.2.1-.4 0-.3zm3.9-5c-.1-.3-.3-.4-.6-.6-.1-.1-.5 0-.5.2v.1c.2.4.6.5 1 .4.1 0 .1 0 .1-.1zm1.1-1.1c-.1-.3-.4-.4-.8-.3-.1.1-.2.1-.1.3.1.4.4.4.8.3.1-.1.2-.2.1-.3zm-2.3 1.7h-.2c-.1.1-.1.1 0 .3l.5.5c.1.1.2.1.2 0s.1-.2.1-.3c-.1-.3-.3-.5-.6-.5zm.7-3.4c-.1 0-.1.1-.1.1v.1c.1.2.3.3.5.4h.2c.1 0 .1-.1.1-.1v-.1c-.2-.2-.4-.4-.7-.4zm-1.3 7.1l-.1-.1c-.2 0-.3-.1-.5-.1-.1 0-.2.1-.3.1l.2.2c.2 0 .3 0 .5.1l.1-.1c.1 0 .1 0 .1-.1zm-1.1-.9c.1-.1.3-.1.4-.2.1-.1.1-.2 0-.3-.1-.1-.4-.1-.4 0-.1.1-.1.2-.1.3 0 .1 0 .1.1.2zm1.8-7.5c0-.2 0-.3-.2-.4-.1-.1-.2 0-.3.1v.1c.1.2.2.3.3.3 0 .1.1 0 .2-.1zm.6-3l-.1.1c0 .1-.1.2-.1.3 0 .1.2.2.4.1l.1-.1c.1-.1-.1-.4-.3-.4zM88 42.7v-.2c-.1-.2-.1-.2-.4-.2-.1 0-.1.1-.1.1 0 .1.1.2.1.3.1.1.2.1.3.1.1 0 .1-.1.1-.1zm1.1-1.6L89 41c-.1 0-.2.1-.3.1l.1.1h.3c-.1 0-.1-.1 0-.1zm3.4-12.6l-.1-.1h-.2c-.1 0-.1.1-.1.1 0 .1.1.2.2.2.2-.1.2-.2.2-.2zm.2-4.7c0-.2-.1-.3-.2-.3l-.1.1c0 .1 0 .2.1.3l.1.1c.1-.1.1-.2.1-.2zm-1.6 3.4v-.1c-.1-.1-.2-.1-.3-.1-.1 0-.2.1-.1.2s.2.1.3.1c0-.1.1-.1.1-.1zm-2.4 10.6c0 .1-.1.2-.1.3l.1.1h.1c0-.2 0-.3-.1-.4.1 0 .1 0 0 0zm.7 2.3c.1-.1.2-.2.1-.3l-.1-.1c-.1 0-.2.1-.2.3.1.1.1.1.2.1zm3.4-18.7v-.2l-.1-.1c-.1.1-.2.2-.1.3l.1.1c0 .1.1 0 .1-.1zm-1.1-.3c-.1-.1-.1-.2-.3-.1-.1 0-.2.1-.2.2s.1.1.3.1c.1-.1.2-.1.2-.2zm1.8-.1v-.2l-.1-.1c-.1 0-.2.1-.2.3 0 .1.1.2.2.1 0 0 .1 0 .1-.1zm-4.2 9.4zm.7-.4v.1h.1L90 30zm-.3-1.5zM87.6 41v.1-.1zm4-2.5l-.1-.1-.1.1.1.1.1-.1zm-5 3.9h-.1.1zm3.4-16l.1.1v-.1H90zm.2-4.6v-.1.1zm2.1.3s-.1 0 0 0c-.1.2 0 .2 0 0 .1 0 0 0 0 0zm-2.4.6c-.1 0-.1 0 0 0-.1.2 0 .2 0 0 .1 0 0 0 0 0zm1.1.1h-.1.1zm2.4-4.4l-.1.1.1.1.1-.1c.1-.1 0-.1-.1-.1zm-1 .7zm-2.2 5.7zm-4-11.1c0-.5.2-1 .4-1.4.3-1 .7-1.9 1.2-2.7.6-1 1.4-1.6 2.4-2.1 1.3-.5 2.6-.4 3.9.2.2.1.3.2.5.3.6.4.6 1.4.2 1.8-.3.3-.6.6-1 .9-1.3 1.1-2.3 2.4-3.3 3.7-.3.4-.4.8-.4 1.2v.2c-.1.3-.6.6-.9.6-.5-.2-1.1-.3-1.6-.6-.5-.2-.8-.6-1.1-1-.1-.1-.1-.2-.1-.4-.2-.2-.2-.4-.2-.7zM90.6 9c0-.1 0-.3-.1-.3l-.1.1c0 .2.1.2.2.2v.3c0 .1.1.2.2.3l.1-.1v-.3c0-.1-.2-.2-.3-.2zm31 80.7h-.1v.1z"/></g></svg>